# xmcd
#
# Track frame offsets: 
#        182
#        14407
#        29882
#        48882
#        60632
#        73732
#        87557
#        101482
#        116832
#        131407
#        148657
#        163432
#        180082
#        191582
#        202032
#        215307
#        222282
#        234707
#        248532
#        276132
#        290557
#        304182
#        317857
#        330182
#
# Disc length: 4592 seconds
#
# Revision: 1
# Processed by: cddbd v1.5.2PL0 Copyright (c) Steve Scherf et al.
# Submitted via: ExactAudioCopyFreeDBPlugin 1.0
#
DISCID=7011ee18
DTITLE=Various Artist - GSCD37 - Hot Wax 3
DYEAR=1900
DGENRE=Northern Soul
TTITLE0=Pierre Hunt - I've Got To Have Your Love
TTITLE1=The Skull Snaps - I'm Your Pimp
TTITLE2=Tyrone Barkley - Man Of Value
TTITLE3=Anderson Brothers - I Can See Him Loving You
TTITLE4=21St Century Ltd - Your Smallest Wish
TTITLE5=The Soulvation Army - Dancing On A Daydream
TTITLE6=James Bynum - Time Passes By
TTITLE7=Imperial Wonders - You Only Live Once
TTITLE8=Velvet Hammer - Happy
TTITLE9=Luckey Davis - It's Not Where You Start
TTITLE10=Cody Black -  - What Goes Around
TTITLE11=J T Brown - Like Taking Candy From A Baby
TTITLE12=Deniece Chandler - Mama, I Wish I Stayed At Home
TTITLE13=Freddie Hughes - Take Me As I Am
TTITLE14=Oscar Weathers - When You See What You Want
TTITLE15=Johnny Baker - Operator! Operator!
TTITLE16=Frankie Floyd - I'm Gonna Get You
TTITLE17=Kevin Drinkard - World World
TTITLE18=Neo Experience - Paradise
TTITLE19=The Entertains - Love Will Turn Around
TTITLE20=The Blade Family - My Baby's Gone
TTITLE21=Just Bobby - I'm A Winner
TTITLE22=Carlena Williams - I Won't Be Completely Happy
TTITLE23=Bonus Track
EXTD=
EXTT0=
EXTT1=
EXTT2=
EXTT3=
EXTT4=
EXTT5=
EXTT6=
EXTT7=
EXTT8=
EXTT9=
EXTT10=
EXTT11=
EXTT12=
EXTT13=
EXTT14=
EXTT15=
EXTT16=
EXTT17=
EXTT18=
EXTT19=
EXTT20=
EXTT21=
EXTT22=
EXTT23=
PLAYORDER=
